<svg width="249" height="65" viewBox="0 0 249 65" fill="none" xmlns="http://www.w3.org/2000/svg">
<rect x="0.5" y="0.5" width="248" height="64" stroke="black"/>
<path d="M31.4671 19.8478L27.7769 19.3596V17.3255H39.4429V19.3596L35.7526 19.8478V45.1522L39.4429 45.5997V47.5525H27.8165V45.5591L31.4671 45.1522V19.8478Z" fill="black"/>
<path d="M46.7965 19.8478L43.6221 19.3596V17.3255H51.0026L64.2162 37.1785L66.4383 41.4908V19.8478L62.9861 19.3596V17.3255H72.3507V19.3596L69.1763 19.8478V47.5525H66.0415L52.5502 27.252L49.4948 21.8819V45.1522L53.2644 45.5591V47.5525H43.6221V45.5591L46.7965 45.1115V19.8478Z" fill="black"/>
<path d="M84.8432 48C83.4676 48 82.2375 47.878 81.1529 47.6339C80.0683 47.3898 78.8779 47.0643 77.5817 46.6575C76.7881 46.3591 76.1929 46.1964 75.7961 46.1693L76.1135 38.8058H78.6531L79.3276 44.0945C79.7774 44.5284 80.5048 44.9217 81.5101 45.2743C82.5418 45.5997 83.666 45.7625 84.8829 45.7625C86.8934 45.7625 88.4145 45.3014 89.4462 44.3793C90.5043 43.4571 91.0334 42.1824 91.0334 40.5551C91.0334 39.4974 90.7424 38.5888 90.1604 37.8294C89.6049 37.07 88.851 36.4191 87.8986 35.8766C86.9727 35.3342 85.6897 34.6968 84.0496 33.9646C82.5682 33.2865 81.272 32.5949 80.1609 31.8898C79.0763 31.1846 78.124 30.2489 77.3039 29.0827C76.5103 27.8893 76.1135 26.4654 76.1135 24.811C76.1135 23.3193 76.4971 21.9904 77.2643 20.8241C78.0579 19.6308 79.1822 18.6951 80.6371 18.0171C82.1185 17.339 83.838 17 85.7956 17C87.0124 17 88.0838 17.0949 89.0097 17.2848C89.962 17.4746 91.0334 17.7323 92.2238 18.0577C92.7529 18.2476 93.2026 18.3696 93.5729 18.4239L93.3348 25.2585H90.9143L90.1207 20.2546C89.8562 19.9834 89.3007 19.7257 88.4542 19.4816C87.6341 19.2375 86.7347 19.1155 85.7559 19.1155C83.9306 19.1155 82.5418 19.5087 81.5894 20.2953C80.6636 21.0818 80.2006 22.2209 80.2006 23.7126C80.2006 24.7975 80.4784 25.706 81.0339 26.4383C81.6159 27.1706 82.3301 27.7944 83.1766 28.3097C84.0232 28.825 85.3723 29.5302 87.2241 30.4252C88.9435 31.266 90.3456 32.0254 91.4302 32.7034C92.5148 33.3815 93.4407 34.2765 94.2078 35.3885C95.0014 36.4733 95.3982 37.7752 95.3982 39.294C95.3982 40.7314 95.0014 42.1146 94.2078 43.4436C93.4407 44.7725 92.2502 45.871 90.6366 46.7388C89.0494 47.5796 87.1182 48 84.8432 48Z" fill="black"/>
<path d="M102.094 19.8478L98.9992 19.3596V17.3255H104.277C105.229 17.3255 106.168 17.2848 107.094 17.2034C108.523 17.0949 109.872 17.0407 111.141 17.0407C114.977 17.0678 117.689 17.8001 119.276 19.2375C120.863 20.675 121.657 22.8447 121.657 25.7467C121.657 27.9164 121.167 29.8014 120.189 31.4016C119.21 33.0017 117.847 34.2222 116.102 35.063C114.382 35.9038 112.398 36.3241 110.149 36.3241C109.382 36.3241 108.602 36.3106 107.808 36.2835C107.015 36.2292 106.525 36.1885 106.34 36.1614V45.1115L111.776 45.5591V47.5525H98.8008V45.5591L102.094 45.1522V19.8478ZM106.34 33.9239C107.081 34.0595 108.351 34.1273 110.149 34.1273C112.239 34.1273 113.932 33.4764 115.229 32.1745C116.551 30.8727 117.213 28.7437 117.213 25.7874C117.213 23.4549 116.644 21.787 115.506 20.7835C114.369 19.7528 112.596 19.2375 110.189 19.2375C109.343 19.2375 108.443 19.2918 107.491 19.4003C106.909 19.4545 106.525 19.4816 106.34 19.4816V33.9239Z" fill="black"/>
<path d="M128.498 19.8478L124.808 19.3596V17.3255H136.474V19.3596L132.784 19.8478V45.1522L136.474 45.5997V47.5525H124.848V45.5591L128.498 45.1522V19.8478Z" fill="black"/>
<path d="M140.494 45.5591L143.788 45.1522V19.8478L140.693 19.3189V17.3255H145.891C146.632 17.3255 147.637 17.2712 148.907 17.1627C150.229 17.0542 151.261 17 152.002 17C155.89 17 158.655 17.6509 160.295 18.9528C161.962 20.2275 162.795 22.248 162.795 25.0144C162.795 26.9401 162.266 28.703 161.208 30.3031C160.176 31.9033 158.747 32.9882 156.922 33.5577C157.769 34.0188 158.549 34.8189 159.263 35.958C160.004 37.07 160.903 38.6295 161.962 40.6365C162.782 42.1553 163.403 43.2673 163.827 43.9724C164.276 44.6776 164.7 45.0709 165.096 45.1522L166.644 45.5591V47.5525H161.168C160.745 47.5525 160.269 47.0914 159.739 46.1693C159.21 45.22 158.509 43.769 157.636 41.8163C156.684 39.6737 155.851 37.9786 155.137 36.731C154.449 35.4563 153.761 34.6426 153.073 34.29C150.243 34.29 148.563 34.2765 148.034 34.2493V45.1522L151.962 45.5591V47.5525H140.494V45.5591ZM152.756 32.0932C154.449 32.0932 155.785 31.5236 156.763 30.3845C157.742 29.2454 158.232 27.5503 158.232 25.2992C158.232 23.3193 157.729 21.8141 156.724 20.7835C155.745 19.7257 154.039 19.1969 151.605 19.1969C150.758 19.1969 149.912 19.2511 149.065 19.3596C148.536 19.4138 148.192 19.4409 148.034 19.4409V32.0525C148.431 32.0796 149.251 32.0932 150.494 32.0932H152.756Z" fill="black"/>
<path d="M171.727 19.8478L168.473 19.3596V17.3255H188.671L189.226 23.6312H186.964L185.814 19.685L175.973 19.4409V30.9134L182.599 30.7913L183.155 27.4147H185.337V36.7717H183.155L182.599 33.273L175.973 33.1509V45.2743L187.163 44.8675L189.266 39.7415L191.607 40.4738L190.456 47.5525H168.434V45.5591L171.727 45.1522V19.8478Z" fill="black"/>
<path d="M197.574 19.8478L194.478 19.3596V17.3255H199.677C200.497 17.3255 201.674 17.2712 203.208 17.1627C204.742 17.0542 205.893 17 206.66 17C211.581 17 215.231 18.2747 217.612 20.8241C220.019 23.3465 221.223 26.8994 221.223 31.4829C221.223 34.6833 220.601 37.5311 219.358 40.0262C218.141 42.4943 216.422 44.4199 214.2 45.8031C211.978 47.1863 209.425 47.8779 206.541 47.8779C205.906 47.8779 204.822 47.8237 203.288 47.7152C201.7 47.6067 200.51 47.5525 199.716 47.5525H194.28V45.5591L197.574 45.1522V19.8478ZM201.78 45.2743C202.706 45.4912 203.896 45.5997 205.351 45.5997H206.541C208.525 45.5726 210.271 45.0573 211.779 44.0538C213.313 43.0503 214.504 41.5586 215.35 39.5787C216.197 37.5717 216.62 35.1444 216.62 32.2966C216.62 28.0114 215.707 24.7568 213.882 22.5328C212.083 20.3088 209.359 19.1969 205.708 19.1969C204.941 19.1969 204.028 19.2511 202.97 19.3596C202.52 19.4409 202.124 19.4816 201.78 19.4816V45.2743Z" fill="black"/>
</svg>
